HIERARCHY
ROOT root
{
	OFFSET 0.000000 0.000000 0.000000
	CHANNELS 6 Xposition Yposition Zposition Zrotation Yrotation Xrotation
	JOINT lhip
	{
		OFFSET 0.058581 -0.082280 -0.017664
		CHANNELS 3 Zrotation Yrotation Xrotation
		JOINT lknee
		{
			OFFSET 0.043451 -0.386469 0.008037
			CHANNELS 3 Zrotation Yrotation Xrotation
			JOINT lankle
			{
				OFFSET -0.014790 -0.426874 -0.037428
				CHANNELS 3 Zrotation Yrotation Xrotation
				JOINT ltoe
				{
					OFFSET 0.041054 -0.060286 0.122042
					CHANNELS 3 Zrotation Yrotation Xrotation
					End Site
					{
						OFFSET 0.000000 0.000000 0.000000
					}
				}
			}
		}
	}
	JOINT rhip
	{
		OFFSET -0.060310 -0.090513 -0.013543
		CHANNELS 3 Zrotation Yrotation Xrotation
		JOINT rknee
		{
			OFFSET -0.043257 -0.383688 -0.004843
			CHANNELS 3 Zrotation Yrotation Xrotation
			JOINT rankle
			{
				OFFSET 0.019056 -0.420046 -0.034562
				CHANNELS 3 Zrotation Yrotation Xrotation
				JOINT rtoe
				{
					OFFSET -0.034840 -0.062106 0.130323
					CHANNELS 3 Zrotation Yrotation Xrotation
					End Site
					{
						OFFSET 0.000000 0.000000 0.000000
					}
				}
			}
		}
	}
	JOINT lowerback
	{
		OFFSET 0.004439 0.124404 -0.038385
		CHANNELS 3 Zrotation Yrotation Xrotation
		JOINT upperback
		{
			OFFSET 0.004488 0.137956 0.026820
			CHANNELS 3 Zrotation Yrotation Xrotation
			JOINT chest
			{
				OFFSET -0.002265 0.056032 0.002855
				CHANNELS 3 Zrotation Yrotation Xrotation
				JOINT lowerneck
				{
					OFFSET -0.013390 0.211636 -0.033468
					CHANNELS 3 Zrotation Yrotation Xrotation
					JOINT upperneck
					{
						OFFSET 0.010113 0.088937 0.050410
						CHANNELS 3 Zrotation Yrotation Xrotation
						End Site
						{
							OFFSET 0.000000 0.000000 0.000000
						}
					}
				}
				JOINT lclavicle
				{
					OFFSET 0.071702 0.114000 -0.018898
					CHANNELS 3 Zrotation Yrotation Xrotation
					JOINT lshoulder
					{
						OFFSET 0.122921 0.045205 -0.019046
						CHANNELS 3 Zrotation Yrotation Xrotation
						JOINT lelbow
						{
							OFFSET 0.255332 -0.015649 -0.022946
							CHANNELS 3 Zrotation Yrotation Xrotation
							JOINT lwrist
							{
								OFFSET 0.265709 0.012698 -0.007375
								CHANNELS 3 Zrotation Yrotation Xrotation
								End Site
								{
									OFFSET 0.000000 0.000000 0.000000
								}
							}
						}
					}
				}
				JOINT rclavicle
				{
					OFFSET -0.082954 0.112472 -0.023707
					CHANNELS 3 Zrotation Yrotation Xrotation
					JOINT rshoulder
					{
						OFFSET -0.113228 0.046853 -0.008472
						CHANNELS 3 Zrotation Yrotation Xrotation
						JOINT relbow
						{
							OFFSET -0.260127 -0.014369 -0.031269
							CHANNELS 3 Zrotation Yrotation Xrotation
							JOINT rwrist
							{
								OFFSET -0.269108 0.006794 -0.006027
								CHANNELS 3 Zrotation Yrotation Xrotation
								End Site
								{
									OFFSET 0.000000 0.000000 0.000000
								}
							}
						}
					}
				}
			}
		}
	}
}
MOTION
Frames: 7
Frame Time: 0.033333
0.268214 0.106158 0.957663 -10.480332 -1.184599 86.777933 -0.370967 -0.483814 -18.207538 -7.176356 4.884536 35.182337 2.388071 5.776925 -15.962570 0.000000 -0.000000 0.000000 5.682630 8.217944 -21.309048 0.752975 5.990436 38.655415 -0.827030 -9.007272 -16.489196 0.000000 -0.000000 0.000000 -4.245377 -2.749185 18.541657 0.903855 -6.430420 1.583729 0.162813 -4.009604 4.436387 -3.526196 12.749853 4.443494 -1.319354 18.367915 0.334905 -17.586664 2.377289 0.245058 -56.743538 -5.577913 6.576115 24.904924 -63.481421 -2.126211 7.599630 -12.574143 -15.678422 13.920853 -7.362557 -3.810875 52.292813 -5.712624 5.099193 -75.874892 60.596280 -62.794038 10.288174 16.574036 -42.756500 
0.266290 0.114302 0.957716 -8.823240 -0.739110 87.077657 0.809123 -0.440644 -21.159317 -7.467971 4.952332 38.753678 -0.313240 3.719816 -14.546253 0.000000 -0.000000 0.000000 5.669027 7.279052 -21.943475 0.678461 4.603241 37.840735 -1.020711 -8.107623 -15.824306 0.000000 -0.000000 0.000000 -3.795920 -2.960638 20.319980 1.239565 -7.552370 0.929407 0.262644 -4.675839 4.137075 -3.924025 13.519831 3.405234 -1.324303 18.594460 0.559216 -17.301796 1.007319 -0.105267 -55.274660 -6.889362 6.300694 27.931373 -64.663753 -3.796752 7.456554 -12.771840 -16.173205 13.692288 -7.015048 -4.033136 52.839908 -5.641053 5.173791 -77.031290 60.599612 -62.483574 10.163861 16.895982 -44.146953 
0.264729 0.122955 0.961808 -7.519067 -0.109081 87.725177 1.666378 0.019746 -23.331476 -7.801716 4.038866 41.215764 -2.427940 2.001594 -14.715034 0.000000 -0.000000 0.000000 5.851973 6.114485 -22.204155 0.353732 3.242710 35.626595 -0.727382 -6.666457 -14.383502 0.000000 -0.000000 0.000000 -3.642331 -2.966404 21.740706 1.801251 -8.401224 0.256966 1.001689 -4.762629 3.217424 -4.435954 13.706872 3.962698 -0.803916 18.939812 0.654862 -16.536617 -1.498616 0.091684 -54.166391 -8.164568 5.889108 33.138432 -65.737237 -8.993588 7.533603 -12.795353 -15.955444 13.477613 -5.938142 -3.427646 52.665419 -6.500587 3.971504 -77.572838 61.021450 -63.202218 10.047212 17.085209 -44.526205 
0.262963 0.134266 0.972651 -5.688028 0.951517 88.547509 2.228059 0.875550 -23.852143 -7.314729 3.515231 44.741122 -2.330011 3.066273 -17.083944 0.000000 -0.000000 0.000000 6.120729 5.837320 -20.711604 0.130615 1.230435 29.673089 0.044264 -5.685414 -10.668648 0.000000 -0.000000 0.000000 -3.701906 -3.448842 23.302276 2.793416 -9.410478 -0.343154 2.166792 -5.239543 3.267018 -5.061453 14.592423 3.952254 -1.192878 19.284138 -0.115168 -15.085234 -3.904155 -0.360858 -51.832683 -11.823889 5.005551 40.778636 -67.017941 -16.455078 8.687196 -12.315653 -15.772730 13.630183 -5.147461 -4.134282 51.885365 -5.928543 4.126485 -74.913360 61.662969 -61.023431 8.951285 17.180991 -45.068522 
0.262547 0.138210 0.976004 -5.457139 1.120772 89.124297 2.327314 0.942765 -23.811063 -6.620529 4.439484 46.309802 -1.971818 4.182056 -17.298164 0.000000 -0.000000 0.000000 6.137954 5.695788 -20.598695 0.005512 0.885003 27.816812 0.322717 -5.480719 -9.231100 0.000000 -0.000000 0.000000 -3.875756 -3.288700 23.194722 3.084358 -9.640506 -0.320587 2.407677 -5.236832 3.283777 -5.098622 14.698366 4.031927 -1.078591 19.215960 -0.273822 -14.447301 -4.641527 -0.665914 -50.830693 -13.429318 4.997340 42.547612 -66.907290 -18.146880 9.179770 -12.391211 -15.480654 13.637200 -4.967265 -4.132483 52.157654 -5.428288 4.350039 -73.947458 61.063313 -59.615315 8.885548 17.299320 -45.410809 
0.262067 0.146694 0.981363 -5.266681 1.474320 90.739162 2.684618 0.645426 -23.488593 -5.117853 7.056185 49.633001 -1.595843 5.776402 -15.984060 0.000000 -0.000000 0.000000 6.150488 5.450803 -21.259542 -0.099891 0.211006 24.594528 1.043805 -4.686017 -6.851707 0.000000 -0.000000 0.000000 -3.996911 -2.940780 22.674187 3.603177 -10.112538 -0.501698 2.872899 -5.326544 2.548648 -5.272236 14.945473 4.931066 -0.475830 19.699192 -0.421925 -13.238593 -6.561259 -0.783646 -48.580140 -15.607738 4.471354 47.113856 -66.343735 -23.521816 8.918934 -12.686199 -14.083134 13.525348 -4.076256 -3.455709 52.325918 -5.241251 4.544369 -73.105535 60.209487 -58.914720 9.094470 17.147836 -45.297441 
0.262500 0.154986 0.983601 -4.556330 1.963211 92.294398 2.939479 -0.078048 -22.374436 -4.110546 8.839300 52.276530 -1.304093 6.902294 -12.139892 0.000000 -0.000000 0.000000 6.023932 5.674690 -22.169764 0.143057 -0.880110 22.055254 1.120284 -4.446663 -4.789848 0.000000 -0.000000 0.000000 -3.745896 -3.182027 22.279673 4.201487 -10.470595 -0.820997 3.151668 -5.650090 2.306573 -5.409868 15.567260 4.648107 -0.684681 20.000529 -0.560695 -12.190337 -8.005460 -1.154684 -46.326854 -17.904295 3.902768 50.522183 -65.447856 -27.110901 9.133372 -13.548074 -12.579681 13.612527 -3.550927 -3.588328 51.718862 -5.105609 5.078002 -72.879693 60.127747 -59.038547 8.971599 17.137476 -45.568790 
